<?xml version='1.0' encoding='UTF-8'?>
<svg height="82mm" version="1.1" viewBox="0 0 82 82" width="82mm" xmlns="http://www.w3.org/2000/svg"><rect fill="white" height="100%" width="100%" x="0" y="0" /><path d="M 70 20 L 70 22 L 72 22 L 72 20 z M 20 64 L 20 66 L 22 66 L 22 64 z M 50 64 L 50 66 L 52 66 L 52 64 z M 52 46 L 52 48 L 54 48 L 54 46 z M 54 60 L 54 62 L 56 62 L 56 60 z M 24 18 L 24 20 L 26 20 L 26 18 z M 72 12 L 72 14 L 74 14 L 74 12 z M 30 52 L 30 54 L 32 54 L 32 52 z M 56 36 L 56 38 L 58 38 L 58 36 z M 36 10 L 36 12 L 38 12 L 38 10 z M 38 16 L 38 18 L 40 18 L 40 16 z M 34 48 L 34 50 L 36 50 L 36 48 z M 66 42 L 66 44 L 68 44 L 68 42 z M 14 12 L 14 14 L 16 14 L 16 12 z M 64 28 L 64 30 L 66 30 L 66 28 z M 70 38 L 70 40 L 72 40 L 72 38 z M 18 56 L 18 58 L 20 58 L 20 56 z M 66 30 L 66 32 L 68 32 L 68 30 z M 48 72 L 48 74 L 50 74 L 50 72 z M 40 8 L 40 10 L 42 10 L 42 8 z M 68 40 L 68 42 L 70 42 L 70 40 z M 54 46 L 54 48 L 56 48 L 56 46 z M 50 38 L 50 40 L 52 40 L 52 38 z M 72 58 L 72 60 L 74 60 L 74 58 z M 54 26 L 54 28 L 56 28 L 56 26 z M 28 36 L 28 38 L 30 38 L 30 36 z M 24 44 L 24 46 L 26 46 L 26 44 z M 30 38 L 30 40 L 32 40 L 32 38 z M 56 50 L 56 52 L 58 52 L 58 50 z M 36 24 L 36 26 L 38 26 L 38 24 z M 58 40 L 58 42 L 60 42 L 60 40 z M 38 34 L 38 36 L 40 36 L 40 34 z M 60 54 L 60 56 L 62 56 L 62 54 z M 8 36 L 8 38 L 10 38 L 10 36 z M 14 30 L 14 32 L 16 32 L 16 30 z M 62 20 L 62 22 L 64 22 L 64 20 z M 10 38 L 10 40 L 12 40 L 12 38 z M 12 32 L 12 34 L 14 34 L 14 32 z M 66 16 L 66 18 L 68 18 L 68 16 z M 14 42 L 14 44 L 16 44 L 16 42 z M 20 36 L 20 38 L 22 38 L 22 36 z M 68 62 L 68 64 L 70 64 L 70 62 z M 46 44 L 46 46 L 48 46 L 48 44 z M 22 38 L 22 40 L 24 40 L 24 38 z M 70 44 L 70 46 L 72 46 L 72 44 z M 48 50 L 48 52 L 50 52 L 50 50 z M 44 18 L 44 20 L 46 20 L 46 18 z M 40 66 L 40 68 L 42 68 L 42 66 z M 20 72 L 20 74 L 22 74 L 22 72 z M 42 56 L 42 58 L 44 58 L 44 56 z M 72 40 L 72 42 L 74 42 L 74 40 z M 52 22 L 52 24 L 54 24 L 54 22 z M 44 70 L 44 72 L 46 72 L 46 70 z M 24 58 L 24 60 L 26 60 L 26 58 z M 56 64 L 56 66 L 58 66 L 58 64 z M 36 46 L 36 48 L 38 48 L 38 46 z M 28 46 L 28 48 L 30 48 L 30 46 z M 60 68 L 60 70 L 62 70 L 62 68 z M 8 18 L 8 20 L 10 20 L 10 18 z M 56 12 L 56 14 L 58 14 L 58 12 z M 10 8 L 10 10 L 12 10 L 12 8 z M 64 56 L 64 58 L 66 58 L 66 56 z M 66 66 L 66 68 L 68 68 L 68 66 z M 14 52 L 14 54 L 16 54 L 16 52 z M 20 10 L 20 12 L 22 12 L 22 10 z M 68 12 L 68 14 L 70 14 L 70 12 z M 16 42 L 16 44 L 18 44 L 18 42 z M 46 62 L 46 64 L 48 64 L 48 62 z M 70 62 L 70 64 L 72 64 L 72 62 z M 18 48 L 18 50 L 20 50 L 20 48 z M 48 64 L 48 66 L 50 66 L 50 64 z M 40 48 L 40 50 L 42 50 L 42 48 z M 20 62 L 20 64 L 22 64 L 22 62 z M 50 42 L 50 44 L 52 44 L 52 42 z M 52 68 L 52 70 L 54 70 L 54 68 z M 44 52 L 44 54 L 46 54 L 46 52 z M 54 70 L 54 72 L 56 72 L 56 70 z M 24 8 L 24 10 L 26 10 L 26 8 z M 72 34 L 72 36 L 74 36 L 74 34 z M 36 60 L 36 62 L 38 62 L 38 60 z M 38 46 L 38 48 L 40 48 L 40 46 z M 30 46 L 30 48 L 32 48 L 32 46 z M 8 64 L 8 66 L 10 66 L 10 64 z M 32 48 L 32 50 L 34 50 L 34 48 z M 62 48 L 62 50 L 64 50 L 64 48 z M 12 68 L 12 70 L 14 70 L 14 68 z M 60 14 L 60 16 L 62 16 L 62 14 z M 46 72 L 46 74 L 48 74 L 48 72 z M 70 8 L 70 10 L 72 10 L 72 8 z M 48 62 L 48 64 L 50 64 L 50 62 z M 20 44 L 20 46 L 22 46 L 22 44 z M 44 42 L 44 44 L 46 44 L 46 42 z M 24 22 L 24 24 L 26 24 L 26 22 z M 72 16 L 72 18 L 74 18 L 74 16 z M 52 30 L 52 32 L 54 32 L 54 30 z M 38 56 L 38 58 L 40 58 L 40 56 z M 30 24 L 30 26 L 32 26 L 32 24 z M 8 46 L 8 48 L 10 48 L 10 46 z M 56 40 L 56 42 L 58 42 L 58 40 z M 36 22 L 36 24 L 38 24 L 38 22 z M 32 46 L 32 48 L 34 48 L 34 46 z M 60 28 L 60 30 L 62 30 L 62 28 z M 14 16 L 14 18 L 16 18 L 16 16 z M 64 16 L 64 18 L 66 18 L 66 16 z M 70 26 L 70 28 L 72 28 L 72 26 z M 18 20 L 18 22 L 20 22 L 20 20 z M 40 12 L 40 14 L 42 14 L 42 12 z M 68 52 L 68 54 L 70 54 L 70 52 z M 42 14 L 42 16 L 44 16 L 44 14 z M 22 40 L 22 42 L 24 42 L 24 40 z M 18 72 L 18 74 L 20 74 L 20 72 z M 44 24 L 44 26 L 46 26 L 46 24 z M 40 56 L 40 58 L 42 58 L 42 56 z M 24 36 L 24 38 L 26 38 L 26 36 z M 52 12 L 52 14 L 54 14 L 54 12 z M 54 30 L 54 32 L 56 32 L 56 30 z M 28 32 L 28 34 L 30 34 L 30 32 z M 24 48 L 24 50 L 26 50 L 26 48 z M 30 10 L 30 12 L 32 12 L 32 10 z M 56 54 L 56 56 L 58 56 L 58 54 z M 32 28 L 32 30 L 34 30 L 34 28 z M 58 52 L 58 54 L 60 54 L 60 52 z M 34 30 L 34 32 L 36 32 L 36 30 z M 12 40 L 12 42 L 14 42 L 14 40 z M 8 8 L 8 10 L 10 10 L 10 8 z M 14 34 L 14 36 L 16 36 L 16 34 z M 62 56 L 62 58 L 64 58 L 64 56 z M 16 36 L 16 38 L 18 38 L 18 36 z M 64 14 L 64 16 L 66 16 L 66 14 z M 12 28 L 12 30 L 14 30 L 14 28 z M 18 38 L 18 40 L 20 40 L 20 38 z M 66 12 L 66 14 L 68 14 L 68 12 z M 20 32 L 20 34 L 22 34 L 22 32 z M 68 58 L 68 60 L 70 60 L 70 58 z M 46 48 L 46 50 L 48 50 L 48 48 z M 22 26 L 22 28 L 24 28 L 24 26 z M 70 64 L 70 66 L 72 66 L 72 64 z M 44 14 L 44 16 L 46 16 L 46 14 z M 40 70 L 40 72 L 42 72 L 42 70 z M 52 18 L 52 20 L 54 20 L 54 18 z M 54 8 L 54 10 L 56 10 L 56 8 z M 72 24 L 72 26 L 74 26 L 74 24 z M 56 68 L 56 70 L 58 70 L 58 68 z M 36 42 L 36 44 L 38 44 L 38 42 z M 34 16 L 34 18 L 36 18 L 36 16 z M 60 64 L 60 66 L 62 66 L 62 64 z M 62 42 L 62 44 L 64 44 L 64 42 z M 10 20 L 10 22 L 12 22 L 12 20 z M 34 68 L 34 70 L 36 70 L 36 68 z M 64 60 L 64 62 L 66 62 L 66 60 z M 60 20 L 60 22 L 62 22 L 62 20 z M 66 62 L 66 64 L 68 64 L 68 62 z M 14 56 L 14 58 L 16 58 L 16 56 z M 68 8 L 68 10 L 70 10 L 70 8 z M 16 46 L 16 48 L 18 48 L 18 46 z M 60 72 L 60 74 L 62 74 L 62 72 z M 18 44 L 18 46 L 20 46 L 20 44 z M 52 64 L 52 66 L 54 66 L 54 64 z M 44 48 L 44 50 L 46 50 L 46 48 z M 24 12 L 24 14 L 26 14 L 26 12 z M 72 38 L 72 40 L 74 40 L 74 38 z M 38 66 L 38 68 L 40 68 L 40 66 z M 8 68 L 8 70 L 10 70 L 10 68 z M 32 52 L 32 54 L 34 54 L 34 52 z M 58 28 L 58 30 L 60 30 L 60 28 z M 34 54 L 34 56 L 36 56 L 36 54 z M 12 64 L 12 66 L 14 66 L 14 64 z M 60 10 L 60 12 L 62 12 L 62 10 z M 66 48 L 66 50 L 68 50 L 68 48 z M 68 30 L 68 32 L 70 32 L 70 30 z M 16 60 L 16 62 L 18 62 L 18 60 z M 40 34 L 40 36 L 42 36 L 42 34 z M 20 40 L 20 42 L 22 42 L 22 40 z M 16 72 L 16 74 L 18 74 L 18 72 z M 42 24 L 42 26 L 44 26 L 44 24 z M 48 14 L 48 16 L 50 16 L 50 14 z M 44 38 L 44 40 L 46 40 L 46 38 z M 50 12 L 50 14 L 52 14 L 52 12 z M 72 20 L 72 22 L 74 22 L 74 20 z M 26 16 L 26 18 L 28 18 L 28 16 z M 54 32 L 54 34 L 56 34 L 56 32 z M 28 14 L 28 16 L 30 16 L 30 14 z M 38 60 L 38 62 L 40 62 L 40 60 z M 30 28 L 30 30 L 32 30 L 32 28 z M 8 50 L 8 52 L 10 52 L 10 50 z M 32 34 L 32 36 L 34 36 L 34 34 z M 10 40 L 10 42 L 12 42 L 12 40 z M 38 8 L 38 10 L 40 10 L 40 8 z M 34 40 L 34 42 L 36 42 L 36 40 z M 60 24 L 60 26 L 62 26 L 62 24 z M 14 20 L 14 22 L 16 22 L 16 20 z M 10 28 L 10 30 L 12 30 L 12 28 z M 64 20 L 64 22 L 66 22 L 66 20 z M 70 30 L 70 32 L 72 32 L 72 30 z M 46 42 L 46 44 L 48 44 L 48 42 z M 42 10 L 42 12 L 44 12 L 44 10 z M 70 42 L 70 44 L 72 44 L 72 42 z M 44 20 L 44 22 L 46 22 L 46 20 z M 50 30 L 50 32 L 52 32 L 52 30 z M 28 72 L 28 74 L 30 74 L 30 72 z M 26 34 L 26 36 L 28 36 L 28 34 z M 54 18 L 54 20 L 56 20 L 56 18 z M 24 52 L 24 54 L 26 54 L 26 52 z M 30 14 L 30 16 L 32 16 L 32 14 z M 26 54 L 26 56 L 28 56 L 28 54 z M 56 58 L 56 60 L 58 60 L 58 58 z M 36 32 L 36 34 L 38 34 L 38 32 z M 32 16 L 32 18 L 34 18 L 34 16 z M 58 48 L 58 50 L 60 50 L 60 48 z M 34 26 L 34 28 L 36 28 L 36 26 z M 30 58 L 30 60 L 32 60 L 32 58 z M 60 46 L 60 48 L 62 48 L 62 46 z M 8 12 L 8 14 L 10 14 L 10 12 z M 16 24 L 16 26 L 18 26 L 18 24 z M 64 66 L 64 68 L 66 68 L 66 66 z M 12 24 L 12 26 L 14 26 L 14 24 z M 18 34 L 18 36 L 20 36 L 20 34 z M 66 8 L 66 10 L 68 10 L 68 8 z M 14 50 L 14 52 L 16 52 L 16 50 z M 58 72 L 58 74 L 60 74 L 60 72 z M 20 12 L 20 14 L 22 14 L 22 12 z M 46 52 L 46 54 L 48 54 L 48 52 z M 22 30 L 22 32 L 24 32 L 24 30 z M 18 54 L 18 56 L 20 56 L 20 54 z M 48 42 L 48 44 L 50 44 L 50 42 z M 44 10 L 44 12 L 46 12 L 46 10 z M 40 42 L 40 44 L 42 44 L 42 42 z M 42 64 L 42 66 L 44 66 L 44 64 z M 24 66 L 24 68 L 26 68 L 26 66 z M 36 54 L 36 56 L 38 56 L 38 54 z M 32 14 L 32 16 L 34 16 L 34 14 z M 28 70 L 28 72 L 30 72 L 30 70 z M 58 66 L 58 68 L 60 68 L 60 66 z M 30 68 L 30 70 L 32 70 L 32 68 z M 60 60 L 60 62 L 62 62 L 62 60 z M 56 20 L 56 22 L 58 22 L 58 20 z M 32 58 L 32 60 L 34 60 L 34 58 z M 64 48 L 64 50 L 66 50 L 66 48 z M 12 14 L 12 16 L 14 16 L 14 14 z M 60 16 L 60 18 L 62 18 L 62 16 z M 66 58 L 66 60 L 68 60 L 68 58 z M 14 60 L 14 62 L 16 62 L 16 60 z M 62 26 L 62 28 L 64 28 L 64 26 z M 20 18 L 20 20 L 22 20 L 22 18 z M 68 20 L 68 22 L 70 22 L 70 20 z M 16 66 L 16 68 L 18 68 L 18 66 z M 46 70 L 46 72 L 48 72 L 48 70 z M 18 40 L 18 42 L 20 42 L 20 40 z M 48 56 L 48 58 L 50 58 L 50 56 z M 14 72 L 14 74 L 16 74 L 16 72 z M 20 70 L 20 72 L 22 72 L 22 70 z M 50 66 L 50 68 L 52 68 L 52 66 z M 46 18 L 46 20 L 48 20 L 48 18 z M 42 50 L 42 52 L 44 52 L 44 50 z M 48 20 L 48 22 L 50 22 L 50 20 z M 54 62 L 54 64 L 56 64 L 56 62 z M 50 22 L 50 24 L 52 24 L 52 22 z M 72 10 L 72 12 L 74 12 L 74 10 z M 36 68 L 36 70 L 38 70 L 38 68 z M 28 20 L 28 22 L 30 22 L 30 20 z M 30 54 L 30 56 L 32 56 L 32 54 z M 36 8 L 36 10 L 38 10 L 38 8 z M 58 24 L 58 26 L 60 26 L 60 24 z M 12 60 L 12 62 L 14 62 L 14 60 z M 60 38 L 60 40 L 62 40 L 62 38 z M 66 44 L 66 46 L 68 46 L 68 44 z M 14 14 L 14 16 L 16 16 L 16 14 z M 16 16 L 16 18 L 18 18 L 18 16 z M 66 32 L 66 34 L 68 34 L 68 32 z M 40 38 L 40 40 L 42 40 L 42 38 z M 20 52 L 20 54 L 22 54 L 22 52 z M 68 46 L 68 48 L 70 48 L 70 46 z M 22 54 L 22 56 L 24 56 L 24 54 z M 52 50 L 52 52 L 54 52 L 54 50 z M 44 34 L 44 36 L 46 36 L 46 34 z M 26 72 L 26 74 L 28 74 L 28 72 z M 50 8 L 50 10 L 52 10 L 52 8 z M 24 30 L 24 32 L 26 32 L 26 30 z M 52 38 L 52 40 L 54 40 L 54 38 z M 26 28 L 26 30 L 28 30 L 28 28 z M 28 10 L 28 12 L 30 12 L 30 10 z M 24 42 L 24 44 L 26 44 L 26 42 z M 30 32 L 30 34 L 32 34 L 32 32 z M 8 54 L 8 56 L 10 56 L 10 54 z M 38 12 L 38 14 L 40 14 L 40 12 z M 60 52 L 60 54 L 62 54 L 62 52 z M 14 24 L 14 26 L 16 26 L 16 24 z M 16 14 L 16 16 L 18 16 L 18 14 z M 64 8 L 64 10 L 66 10 L 66 8 z M 56 72 L 56 74 L 58 74 L 58 72 z M 40 20 L 40 22 L 42 22 L 42 20 z M 44 16 L 44 18 L 46 18 L 46 16 z M 50 26 L 50 28 L 52 28 L 52 26 z M 42 58 L 42 60 L 44 60 L 44 58 z M 52 20 L 52 22 L 54 22 L 54 20 z M 44 68 L 44 70 L 46 70 L 46 68 z M 54 22 L 54 24 L 56 24 L 56 22 z M 30 18 L 30 20 L 32 20 L 32 18 z M 56 62 L 56 64 L 58 64 L 58 62 z M 36 44 L 36 46 L 38 46 L 38 44 z M 32 20 L 32 22 L 34 22 L 34 20 z M 28 44 L 28 46 L 30 46 L 30 44 z M 38 30 L 38 32 L 40 32 L 40 30 z M 34 22 L 34 24 L 36 24 L 36 22 z M 60 42 L 60 44 L 62 44 L 62 42 z M 8 16 L 8 18 L 10 18 L 10 16 z M 62 64 L 62 66 L 64 66 L 64 64 z M 64 70 L 64 72 L 66 72 L 66 70 z M 12 20 L 12 22 L 14 22 L 14 20 z M 20 8 L 20 10 L 22 10 L 22 8 z M 16 40 L 16 42 L 18 42 L 18 40 z M 46 56 L 46 58 L 48 58 L 48 56 z M 12 72 L 12 74 L 14 74 L 14 72 z M 70 56 L 70 58 L 72 58 L 72 56 z M 20 60 L 20 62 L 22 62 L 22 60 z M 50 44 L 50 46 L 52 46 L 52 44 z M 44 58 L 44 60 L 46 60 L 46 58 z M 26 68 L 26 70 L 28 70 L 28 68 z M 36 50 L 36 52 L 38 52 L 38 50 z M 28 66 L 28 68 L 30 68 L 30 66 z M 34 8 L 34 10 L 36 10 L 36 8 z M 30 40 L 30 42 L 32 42 L 32 40 z M 60 56 L 60 58 L 62 58 L 62 56 z M 8 62 L 8 64 L 10 64 L 10 62 z M 56 24 L 56 26 L 58 26 L 58 24 z M 32 62 L 32 64 L 34 64 L 34 62 z M 62 50 L 62 52 L 64 52 L 64 50 z M 10 60 L 10 62 L 12 62 L 12 60 z M 34 60 L 34 62 L 36 62 L 36 60 z M 60 12 L 60 14 L 62 14 L 62 12 z M 66 54 L 66 56 L 68 56 L 68 54 z M 14 64 L 14 66 L 16 66 L 16 64 z M 68 16 L 68 18 L 70 18 L 70 16 z M 48 60 L 48 62 L 50 62 L 50 60 z M 40 28 L 40 30 L 42 30 L 42 28 z M 20 66 L 20 68 L 22 68 L 22 66 z M 42 30 L 42 32 L 44 32 L 44 30 z M 22 56 L 22 58 L 24 58 L 24 56 z M 52 40 L 52 42 L 54 42 L 54 40 z M 48 8 L 48 10 L 50 10 L 50 8 z M 44 40 L 44 42 L 46 42 L 46 40 z M 50 18 L 50 20 L 52 20 L 52 18 z M 24 20 L 24 22 L 26 22 L 26 20 z M 72 14 L 72 16 L 74 16 L 74 14 z M 26 22 L 26 24 L 28 24 L 28 22 z M 36 64 L 36 66 L 38 66 L 38 64 z M 28 16 L 28 18 L 30 18 L 30 16 z M 38 58 L 38 60 L 40 60 L 40 58 z M 30 26 L 30 28 L 32 28 L 32 26 z M 8 44 L 8 46 L 10 46 L 10 44 z M 56 38 L 56 40 L 58 40 L 58 38 z M 36 20 L 36 22 L 38 22 L 38 20 z M 32 44 L 32 46 L 34 46 L 34 44 z M 10 46 L 10 48 L 12 48 L 12 46 z M 58 36 L 58 38 L 60 38 L 60 36 z M 34 46 L 34 48 L 36 48 L 36 46 z M 60 34 L 60 36 L 62 36 L 62 34 z M 62 8 L 62 10 L 64 10 L 64 8 z M 68 38 L 68 40 L 70 40 L 70 38 z M 16 20 L 16 22 L 18 22 L 18 20 z M 70 36 L 70 38 L 72 38 L 72 36 z M 66 28 L 66 30 L 68 30 L 68 28 z M 40 10 L 40 12 L 42 12 L 42 10 z M 20 48 L 20 50 L 22 50 L 22 48 z M 68 42 L 68 44 L 70 44 L 70 42 z M 46 32 L 46 34 L 48 34 L 48 32 z M 42 32 L 42 34 L 44 34 L 44 32 z M 44 30 L 44 32 L 46 32 L 46 30 z M 50 36 L 50 38 L 52 38 L 52 36 z M 52 34 L 52 36 L 54 36 L 54 34 z M 26 24 L 26 26 L 28 26 L 28 24 z M 54 24 L 54 26 L 56 26 L 56 24 z M 30 36 L 30 38 L 32 38 L 32 36 z M 26 44 L 26 46 L 28 46 L 28 44 z M 36 26 L 36 28 L 38 28 L 38 26 z M 10 48 L 10 50 L 12 50 L 12 48 z M 38 32 L 38 34 L 40 34 L 40 32 z M 60 48 L 60 50 L 62 50 L 62 48 z M 16 34 L 16 36 L 18 36 L 18 34 z M 64 12 L 64 14 L 66 14 L 66 12 z M 18 8 L 18 10 L 20 10 L 20 8 z M 66 14 L 66 16 L 68 16 L 68 14 z M 10 72 L 10 74 L 12 74 L 12 72 z M 46 50 L 46 52 L 48 52 L 48 50 z M 70 66 L 70 68 L 72 68 L 72 66 z M 44 12 L 44 14 L 46 14 L 46 12 z M 40 68 L 40 70 L 42 70 L 42 68 z M 50 54 L 50 56 L 52 56 L 52 54 z M 72 42 L 72 44 L 74 44 L 74 42 z M 44 64 L 44 66 L 46 66 L 46 64 z M 30 22 L 30 24 L 32 24 L 32 22 z M 32 8 L 32 10 L 34 10 L 34 8 z M 58 56 L 58 58 L 60 58 L 60 56 z M 38 50 L 38 52 L 40 52 L 40 50 z M 30 66 L 30 68 L 32 68 L 32 66 z M 8 20 L 8 22 L 10 22 L 10 20 z M 56 14 L 56 16 L 58 16 L 58 14 z M 34 70 L 34 72 L 36 72 L 36 70 z M 64 58 L 64 60 L 66 60 L 66 58 z M 12 16 L 12 18 L 14 18 L 14 16 z M 20 20 L 20 22 L 22 22 L 22 20 z M 68 14 L 68 16 L 70 16 L 70 14 z M 16 44 L 16 46 L 18 46 L 18 44 z M 70 60 L 70 62 L 72 62 L 72 60 z M 48 66 L 48 68 L 50 68 L 50 66 z M 40 50 L 40 52 L 42 52 L 42 50 z M 20 56 L 20 58 L 22 58 L 22 56 z M 54 72 L 54 74 L 56 74 L 56 72 z M 52 70 L 52 72 L 54 72 L 54 70 z M 70 72 L 70 74 L 72 74 L 72 72 z M 44 54 L 44 56 L 46 56 L 46 54 z M 24 10 L 24 12 L 26 12 L 26 10 z M 26 64 L 26 66 L 28 66 L 28 64 z M 36 62 L 36 64 L 38 64 L 38 62 z M 28 62 L 28 64 L 30 64 L 30 62 z M 38 44 L 38 46 L 40 46 L 40 44 z M 30 44 L 30 46 L 32 46 L 32 44 z M 8 66 L 8 68 L 10 68 L 10 66 z M 34 56 L 34 58 L 36 58 L 36 56 z M 64 40 L 64 42 L 66 42 L 66 40 z M 60 8 L 60 10 L 62 10 L 62 8 z M 14 68 L 14 70 L 16 70 L 16 68 z M 62 34 L 62 36 L 64 36 L 64 34 z M 68 28 L 68 30 L 70 30 L 70 28 z M 40 32 L 40 34 L 42 34 L 42 32 z M 42 26 L 42 28 L 44 28 L 44 26 z M 52 52 L 52 54 L 54 54 L 54 52 z M 44 36 L 44 38 L 46 38 L 46 36 z M 24 24 L 24 26 L 26 26 L 26 24 z M 72 18 L 72 20 L 74 20 L 74 18 z M 26 18 L 26 20 L 28 20 L 28 18 z M 54 34 L 54 36 L 56 36 L 56 34 z M 28 12 L 28 14 L 30 14 L 30 12 z M 8 48 L 8 50 L 10 50 L 10 48 z M 36 16 L 36 18 L 38 18 L 38 16 z M 32 32 L 32 34 L 34 34 L 34 32 z M 10 42 L 10 44 L 12 44 L 12 42 z M 58 32 L 58 34 L 60 34 L 60 32 z M 38 10 L 38 12 L 40 12 L 40 10 z M 34 42 L 34 44 L 36 44 L 36 42 z M 12 52 L 12 54 L 14 54 L 14 52 z M 60 30 L 60 32 L 62 32 L 62 30 z M 8 28 L 8 30 L 10 30 L 10 28 z M 10 30 L 10 32 L 12 32 L 12 30 z M 68 34 L 68 36 L 70 36 L 70 34 z M 16 8 L 16 10 L 18 10 L 18 8 z M 8 72 L 8 74 L 10 74 L 10 72 z M 70 24 L 70 26 L 72 26 L 72 24 z M 40 14 L 40 16 L 42 16 L 42 14 z M 20 28 L 20 30 L 22 30 L 22 28 z M 68 54 L 68 56 L 70 56 L 70 54 z M 22 46 L 22 48 L 24 48 L 24 46 z M 70 52 L 70 54 L 72 54 L 72 52 z M 48 26 L 48 28 L 50 28 L 50 26 z M 50 32 L 50 34 L 52 34 L 52 32 z M 24 38 L 24 40 L 26 40 L 26 38 z M 52 14 L 52 16 L 54 16 L 54 14 z M 24 50 L 24 52 L 26 52 L 26 50 z M 30 8 L 30 10 L 32 10 L 32 8 z M 26 40 L 26 42 L 28 42 L 28 40 z M 56 56 L 56 58 L 58 58 L 58 56 z M 36 38 L 36 40 L 38 40 L 38 38 z M 32 30 L 32 32 L 34 32 L 34 30 z M 28 54 L 28 56 L 30 56 L 30 54 z M 38 36 L 38 38 L 40 38 L 40 36 z M 34 28 L 34 30 L 36 30 L 36 28 z M 60 44 L 60 46 L 62 46 L 62 44 z M 8 10 L 8 12 L 10 12 L 10 10 z M 10 32 L 10 34 L 12 34 L 12 32 z M 16 38 L 16 40 L 18 40 L 18 38 z M 64 64 L 64 66 L 66 66 L 66 64 z M 18 36 L 18 38 L 20 38 L 20 36 z M 16 50 L 16 52 L 18 52 L 18 50 z M 46 54 L 46 56 L 48 56 L 48 54 z M 48 40 L 48 42 L 50 42 L 50 40 z M 44 8 L 44 10 L 46 10 L 46 8 z M 40 40 L 40 42 L 42 42 L 42 40 z M 68 72 L 68 74 L 70 74 L 70 72 z M 42 66 L 42 68 L 44 68 L 44 66 z M 72 46 L 72 48 L 74 48 L 74 46 z M 52 60 L 52 62 L 54 62 L 54 60 z M 44 60 L 44 62 L 46 62 L 46 60 z M 24 64 L 24 66 L 26 66 L 26 64 z M 72 26 L 72 28 L 74 28 L 74 26 z M 36 52 L 36 54 L 38 54 L 38 52 z M 34 14 L 34 16 L 36 16 L 36 14 z M 30 70 L 30 72 L 32 72 L 32 70 z M 8 56 L 8 58 L 10 58 L 10 56 z M 56 18 L 56 20 L 58 20 L 58 18 z M 62 40 L 62 42 L 64 42 L 64 40 z M 64 62 L 64 64 L 66 64 L 66 62 z M 12 12 L 12 14 L 14 14 L 14 12 z M 20 16 L 20 18 L 22 18 L 22 16 z M 16 64 L 16 66 L 18 66 L 18 64 z M 46 64 L 46 66 L 48 66 L 48 64 z M 48 70 L 48 72 L 50 72 L 50 70 z M 20 68 L 20 70 L 22 70 L 22 68 z M 50 68 L 50 70 L 52 70 L 52 68 z M 42 52 L 42 54 L 44 54 L 44 52 z M 72 8 L 72 10 L 74 10 L 74 8 z M 26 12 L 26 14 L 28 14 L 28 12 z M 36 58 L 36 60 L 38 60 L 38 58 z M 30 48 L 30 50 L 32 50 L 32 48 z M 8 70 L 8 72 L 10 72 L 10 70 z M 56 32 L 56 34 L 58 34 L 58 32 z M 36 14 L 36 16 L 38 16 L 38 14 z M 12 66 L 12 68 L 14 68 L 14 66 z M 60 36 L 60 38 L 62 38 L 62 36 z M 66 46 L 66 48 L 68 48 L 68 46 z M 14 8 L 14 10 L 16 10 L 16 8 z M 62 38 L 62 40 L 64 40 L 64 38 z M 68 24 L 68 26 L 70 26 L 70 24 z M 70 34 L 70 36 L 72 36 L 72 34 z M 18 60 L 18 62 L 20 62 L 20 60 z M 40 36 L 40 38 L 42 38 L 42 36 z M 46 30 L 46 32 L 48 32 L 48 30 z M 22 48 L 22 50 L 24 50 L 24 48 z M 52 48 L 52 50 L 54 50 L 54 48 z M 44 32 L 44 34 L 46 34 L 46 32 z M 54 42 L 54 44 L 56 44 L 56 42 z M 50 10 L 50 12 L 52 12 L 52 10 z M 52 36 L 52 38 L 54 38 L 54 36 z M 26 30 L 26 32 L 28 32 L 28 30 z M 54 38 L 54 40 L 56 40 L 56 38 z M 8 52 L 8 54 L 10 54 L 10 52 z M 36 28 L 36 30 L 38 30 L 38 28 z M 58 44 L 58 46 L 60 46 L 60 44 z M 34 38 L 34 40 L 36 40 L 36 38 z M 12 48 L 12 50 L 14 50 L 14 48 z M 60 26 L 60 28 L 62 28 L 62 26 z M 14 26 L 14 28 L 16 28 L 16 26 z M 10 26 L 10 28 L 12 28 L 12 26 z M 16 12 L 16 14 L 18 14 L 18 12 z M 70 28 L 70 30 L 72 30 L 72 28 z M 66 20 L 66 22 L 68 22 L 68 20 z M 20 24 L 20 26 L 22 26 L 22 24 z M 46 40 L 46 42 L 48 42 L 48 40 z M 22 34 L 22 36 L 24 36 L 24 34 z M 48 30 L 48 32 L 50 32 L 50 30 z M 44 22 L 44 24 L 46 24 L 46 22 z M 50 28 L 50 30 L 52 30 L 52 28 z M 52 10 L 52 12 L 54 12 L 54 10 z M 28 30 L 28 32 L 30 32 L 30 30 z M 56 60 L 56 62 L 58 62 L 58 60 z M 32 18 L 32 20 L 34 20 L 34 18 z M 38 24 L 38 26 L 40 26 L 40 24 z M 30 56 L 30 58 L 32 58 L 32 56 z M 8 14 L 8 16 L 10 16 L 10 14 z M 16 26 L 16 28 L 18 28 L 18 26 z M 18 32 L 18 34 L 20 34 L 20 32 z M 66 70 L 66 72 L 68 72 L 68 70 z M 14 48 L 14 50 L 16 50 L 16 48 z M 20 14 L 20 16 L 22 16 L 22 14 z M 18 52 L 18 54 L 20 54 L 20 52 z M 50 46 L 50 48 L 52 48 L 52 46 z M 42 46 L 42 48 L 44 48 L 44 46 z M 72 50 L 72 52 L 74 52 L 74 50 z M 52 56 L 52 58 L 54 58 L 54 56 z M 54 66 L 54 68 L 56 68 L 56 66 z M 24 68 L 24 70 L 26 70 L 26 68 z M 26 70 L 26 72 L 28 72 L 28 70 z M 36 48 L 36 50 L 38 50 L 38 48 z M 28 64 L 28 66 L 30 66 L 30 64 z M 58 64 L 58 66 L 60 66 L 60 64 z M 34 10 L 34 12 L 36 12 L 36 10 z M 8 60 L 8 62 L 10 62 L 10 60 z M 32 60 L 32 62 L 34 62 L 34 60 z M 12 8 L 12 10 L 14 10 L 14 8 z M 60 18 L 60 20 L 62 20 L 62 18 z M 36 72 L 36 74 L 38 74 L 38 72 z M 14 66 L 14 68 L 16 68 L 16 66 z M 62 24 L 62 26 L 64 26 L 64 24 z M 16 68 L 16 70 L 18 70 L 18 68 z" fill="#000000" fill-opacity="1" fill-rule="nonzero" id="qr-path" stroke="none" /></svg>